name C:\Users\u0101727\Documents\MyRepositories\upper-imu-dc\Results\main_tracking\Case_22\kinematics.mot
datacolumns 10
datarows 37
range 2.04000000 2.40000000
endheader 
time	clav_prot	clav_elev	scapula_abduction	scapula_elevation	scapula_upward_rot	scapula_winging	plane_elv	shoulder_elv	axial_rot	
          2.04000000	        -22.20600866	          9.04958855	         -9.20857901	          3.16978290	         24.45024940	          0.15109364	         13.73245452	          7.75929701	         15.51052066	
          2.05000000	        -21.09995676	          8.65434729	         -7.60079409	          3.13272690	         23.64188227	          0.39015922	         12.49871280	          8.27326602	         16.44132711	
          2.06000000	        -20.55244082	          8.20968155	         -6.96894212	          3.02304931	         22.84969302	          0.61287005	         11.19126003	          8.79325271	         17.39263366	
          2.07000000	        -20.18308691	          7.67815875	         -6.57132304	          2.82317180	         22.12570814	          0.81523906	          9.86098170	          9.28248055	         18.31268091	
          2.08000000	        -19.96794329	          7.10999171	         -6.37222012	          2.56518164	         21.49621962	          0.99774669	          8.55445842	          9.71409747	         19.15538416	
          2.09000000	        -19.86410134	          6.55809460	         -6.31343706	          2.28872690	         20.96864618	          1.16044693	          7.30180578	         10.07556821	         19.88627658	
          2.10000000	        -19.82856267	          6.06091155	         -6.33666669	          2.02566042	         20.53845856	          1.30235204	          6.11467425	         10.36628186	         20.48494469	
          2.11000000	        -19.82531994	          5.63912168	         -6.39159198	          1.79566790	         20.19560164	          1.42215598	          4.99011084	         10.59289138	         20.94504314	
          2.12000000	        -19.82801050	          5.29775086	         -6.43989151	          1.60675610	         19.92823787	          1.51929814	          3.91681906	         10.76592768	         21.27254976	
          2.13000000	        -19.81967848	          5.03049585	         -6.45587096	          1.45803439	         19.72444306	          1.59454076	          2.88160317	         10.89752284	         21.48330197	
          2.14000000	        -19.78901174	          4.82376853	         -6.42258783	          1.34334211	         19.57046989	          1.65051412	          1.87592377	         11.00226915	         21.59885951	
          2.15000000	        -19.72538876	          4.65972052	         -6.32533693	          1.25422219	         19.44889030	          1.69172495	          0.89597066	         11.09824940	         21.64586953	
          2.16000000	        -19.64244187	          4.51906023	         -6.18175339	          1.17572820	         19.35866704	          1.72031171	         -0.06091345	         11.18715740	         21.65391460	
          2.17000000	        -19.54838661	          4.38232798	         -6.00390047	          1.09461348	         19.29265723	          1.74022686	         -0.99313294	         11.27589722	         21.65097581	
          2.18000000	        -19.44762852	          4.23240451	         -5.79953052	          1.00015674	         19.24149247	          1.75590871	         -1.89695550	         11.37221333	         21.66303450	
          2.19000000	        -19.34293379	          4.05554570	         -5.57467486	          0.88417212	         19.19615967	          1.77157666	         -2.76861602	         11.48219584	         21.71256784	
          2.20000000	        -19.23664762	          3.84126112	         -5.33526432	          0.74064867	         19.14880164	          1.79112059	         -3.60591352	         11.60985303	         21.81823576	
          2.21000000	        -19.13025525	          3.58248270	         -5.08660844	          0.56597759	         19.09238568	          1.81814397	         -4.40849819	         11.75768577	         21.99447885	
          2.22000000	        -19.02402734	          3.27600474	         -4.83272201	          0.35923884	         19.02092344	          1.85576337	         -5.17876495	         11.92659701	         22.25297963	
          2.23000000	        -18.91679495	          2.92271780	         -4.57572271	          0.12231258	         18.92974996	          1.90633203	         -5.92271279	         12.11577088	         22.60530165	
          2.24000000	        -18.80616661	          2.52737410	         -4.31575611	         -0.14040389	         18.81590103	          1.97115185	         -6.65067642	         12.32258373	         23.06609885	
          2.25000000	        -18.68912151	          2.09785146	         -4.05151348	         -0.42263056	         18.67833787	          2.05030446	         -7.37710905	         12.54282879	         23.65511254	
          2.26000000	        -18.56288467	          1.64408307	         -3.78130980	         -0.71704481	         18.51795460	          2.14266879	         -8.11902168	         12.77127429	         24.39646919	
          2.27000000	        -18.42576019	          1.17695397	         -3.50437174	         -1.01604711	         18.33720551	          2.24615407	         -8.89274532	         13.00259209	         25.31428807	
          2.28000000	        -18.27746945	          0.70748511	         -3.22165932	         -1.31218148	         18.13930860	          2.35806178	         -9.70957522	         13.23252914	         26.42558738	
          2.29000000	        -18.12009692	          0.24617543	         -2.93747601	         -1.59862038	         17.92804984	          2.47545328	        -10.57183407	         13.45834278	         27.73200147	
          2.30000000	        -17.95864191	         -0.19746613	         -2.66047731	         -1.86948715	         17.70757397	          2.59553987	        -11.46982398	         13.67904221	         29.21247959	
          2.31000000	        -17.80145912	         -0.61539811	         -2.40434025	         -2.12024989	         17.48243752	          2.71605898	        -12.38049308	         13.89521650	         30.81890292	
          2.32000000	        -17.66083510	         -1.00168528	         -2.18826493	         -2.34840480	         17.25828347	          2.83558178	        -13.26888138	         14.10813910	         32.47709385	
          2.33000000	        -17.55363206	         -1.35329574	         -2.03721770	         -2.55443669	         17.04309765	          2.95371723	        -14.09246461	         14.31818355	         34.09440589	
          2.34000000	        -17.50191522	         -1.67089048	         -1.98190067	         -2.74289202	         16.84889084	          3.07112813	        -14.80800144	         14.52268604	         35.57334488	
          2.35000000	        -17.53326296	         -1.95928521	         -2.05829712	         -2.92317298	         16.69326645	          3.18925050	        -15.37968415	         14.71378576	         36.82805951	
          2.36000000	        -17.68024136	         -2.22714933	         -2.30642360	         -3.10948353	         16.60005176	          3.30957474	        -15.78724358	         14.87706685	         37.79909673	
          2.37000000	        -17.97793333	         -2.48528231	         -2.76726035	         -3.31900226	         16.59760314	          3.43235254	        -16.03262730	         14.99225635	         38.46221964	
          2.38000000	        -18.45792366	         -2.74260332	         -3.47640458	         -3.56703337	         16.71285691	          3.55475035	        -16.14405285	         15.03754091	         38.82951967	
          2.39000000	        -19.13613360	         -2.99921058	         -4.45192629	         -3.85781392	         16.95834921	          3.66902256	        -16.17541369	         14.99980453	         38.94333440	
          2.40000000	        -19.98432594	         -3.23701101	         -5.66228038	         -4.16965607	         17.30723752	          3.76224401	        -16.19556597	         14.89515810	         38.86619860	
